<mxfile host="app.diagrams.net" modified="2020-12-31T11:11:37.498Z" agent="5.0 (Windows NT 10.0; Win64; x64) AppleWebKit/537.36 (KHTML, like Gecko) Chrome/87.0.4280.88 Safari/537.36" etag="u8ycoMrdpBi7uhqKE_Ji" version="14.1.4" type="github" pages="3">
  <diagram name="Login" id="0783ab3e-0a74-02c8-0abd-f7b4e66b4bec">
    <mxGraphModel dx="1038" dy="580" grid="1" gridSize="10" guides="1" tooltips="1" connect="1" arrows="1" fold="1" page="1" pageScale="1" pageWidth="850" pageHeight="1100" background="#ffffff" math="0" shadow="0">
      <root>
        <mxCell id="0" />
        <mxCell id="1" parent="0" />
        <mxCell id="1c1d494c118603dd-1" value="Pool" style="swimlane;html=1;childLayout=stackLayout;startSize=20;rounded=0;shadow=0;comic=0;labelBackgroundColor=none;strokeWidth=1;fontFamily=Verdana;fontSize=12;align=center;" parent="1" vertex="1">
          <mxGeometry x="40" y="20" width="750" height="540" as="geometry" />
        </mxCell>
        <mxCell id="1c1d494c118603dd-2" value="Người dùng" style="swimlane;html=1;startSize=20;" parent="1c1d494c118603dd-1" vertex="1">
          <mxGeometry y="20" width="250" height="520" as="geometry" />
        </mxCell>
        <mxCell id="1c1d494c118603dd-6" value="Người dùng nhập email và mật khẩu" style="rounded=1;whiteSpace=wrap;html=1;shadow=0;comic=0;labelBackgroundColor=none;strokeWidth=1;fontFamily=Verdana;fontSize=12;align=center;arcSize=50;" parent="1c1d494c118603dd-2" vertex="1">
          <mxGeometry x="60" y="75" width="120" height="45" as="geometry" />
        </mxCell>
        <mxCell id="1c1d494c118603dd-3" value="Giao diện" style="swimlane;html=1;startSize=20;" parent="1c1d494c118603dd-1" vertex="1">
          <mxGeometry x="250" y="20" width="250" height="520" as="geometry" />
        </mxCell>
        <mxCell id="1c1d494c118603dd-11" value="Đến trang home của ứng dụng" style="rounded=1;whiteSpace=wrap;html=1;shadow=0;comic=0;labelBackgroundColor=none;strokeWidth=1;fontFamily=Verdana;fontSize=12;align=center;arcSize=50;" parent="1c1d494c118603dd-3" vertex="1">
          <mxGeometry x="72" y="400" width="100" height="50" as="geometry" />
        </mxCell>
        <mxCell id="BFXSvuZgBgwEtLYpSsqL-1" value="Đi đến trang đăng ký người dùng" style="rounded=1;whiteSpace=wrap;html=1;shadow=0;comic=0;labelBackgroundColor=none;strokeWidth=1;fontFamily=Verdana;fontSize=12;align=center;arcSize=50;" vertex="1" parent="1c1d494c118603dd-3">
          <mxGeometry x="64" y="70" width="100" height="50" as="geometry" />
        </mxCell>
        <mxCell id="1c1d494c118603dd-7" value="Yêu cầu người dùng nhập lại thông tin" style="rounded=1;whiteSpace=wrap;html=1;shadow=0;comic=0;labelBackgroundColor=none;strokeWidth=1;fontFamily=Verdana;fontSize=12;align=center;arcSize=50;" parent="1c1d494c118603dd-3" vertex="1">
          <mxGeometry x="72" y="325" width="106" height="50" as="geometry" />
        </mxCell>
        <mxCell id="60571a20871a0731-5" value="" style="shape=mxgraph.bpmn.shape;html=1;verticalLabelPosition=bottom;labelBackgroundColor=#ffffff;verticalAlign=top;perimeter=ellipsePerimeter;outline=end;symbol=terminate;rounded=0;shadow=0;comic=0;strokeWidth=1;fontFamily=Verdana;fontSize=12;align=center;" parent="1c1d494c118603dd-3" vertex="1">
          <mxGeometry x="102" y="470" width="40" height="40" as="geometry" />
        </mxCell>
        <mxCell id="1c1d494c118603dd-45" style="edgeStyle=none;rounded=0;html=1;labelBackgroundColor=none;startArrow=none;startFill=0;startSize=5;endArrow=classicThin;endFill=1;endSize=5;jettySize=auto;orthogonalLoop=1;strokeWidth=1;fontFamily=Verdana;fontSize=12;exitX=0.5;exitY=1;exitDx=0;exitDy=0;" parent="1c1d494c118603dd-3" source="1c1d494c118603dd-11" target="60571a20871a0731-5" edge="1">
          <mxGeometry relative="1" as="geometry">
            <mxPoint x="120" y="440" as="sourcePoint" />
          </mxGeometry>
        </mxCell>
        <mxCell id="1c1d494c118603dd-4" value="Server" style="swimlane;html=1;startSize=20;" parent="1c1d494c118603dd-1" vertex="1">
          <mxGeometry x="500" y="20" width="250" height="520" as="geometry" />
        </mxCell>
        <mxCell id="1c1d494c118603dd-27" style="edgeStyle=orthogonalEdgeStyle;rounded=0;html=1;labelBackgroundColor=none;startArrow=none;startFill=0;startSize=5;endArrow=classicThin;endFill=1;endSize=5;jettySize=auto;orthogonalLoop=1;strokeWidth=1;fontFamily=Verdana;fontSize=12;" parent="1c1d494c118603dd-4" source="60571a20871a0731-4" edge="1">
          <mxGeometry relative="1" as="geometry">
            <mxPoint x="125" y="97" as="targetPoint" />
            <Array as="points">
              <mxPoint x="125" y="97" />
            </Array>
          </mxGeometry>
        </mxCell>
        <mxCell id="60571a20871a0731-4" value="" style="ellipse;whiteSpace=wrap;html=1;rounded=0;shadow=0;comic=0;labelBackgroundColor=none;strokeWidth=1;fillColor=#000000;fontFamily=Verdana;fontSize=12;align=center;" parent="1c1d494c118603dd-4" vertex="1">
          <mxGeometry x="110" y="30" width="30" height="30" as="geometry" />
        </mxCell>
        <mxCell id="60571a20871a0731-8" value="Hệ thống kiểm tra thiết bị đã được đăng nhập chưa&lt;br&gt;" style="rounded=1;whiteSpace=wrap;html=1;shadow=0;comic=0;labelBackgroundColor=none;strokeWidth=1;fontFamily=Verdana;fontSize=12;align=center;arcSize=50;" parent="1c1d494c118603dd-4" vertex="1">
          <mxGeometry x="70" y="100" width="110" height="60" as="geometry" />
        </mxCell>
        <mxCell id="1c1d494c118603dd-5" value="Kiểm tra thông tin" style="rounded=1;whiteSpace=wrap;html=1;shadow=0;comic=0;labelBackgroundColor=none;strokeWidth=1;fontFamily=Verdana;fontSize=12;align=center;arcSize=50;" parent="1c1d494c118603dd-4" vertex="1">
          <mxGeometry x="75" y="260" width="100" height="30" as="geometry" />
        </mxCell>
        <mxCell id="BFXSvuZgBgwEtLYpSsqL-2" value="" style="rhombus;whiteSpace=wrap;html=1;fillColor=#ffffc0;strokeColor=#ff0000;" vertex="1" parent="1c1d494c118603dd-4">
          <mxGeometry x="85" y="180" width="80" height="40" as="geometry" />
        </mxCell>
        <mxCell id="BFXSvuZgBgwEtLYpSsqL-8" value="" style="rhombus;whiteSpace=wrap;html=1;fillColor=#ffffc0;strokeColor=#ff0000;" vertex="1" parent="1c1d494c118603dd-4">
          <mxGeometry x="85" y="330" width="80" height="40" as="geometry" />
        </mxCell>
        <mxCell id="BFXSvuZgBgwEtLYpSsqL-11" style="edgeStyle=none;rounded=0;html=1;labelBackgroundColor=none;startArrow=none;startFill=0;startSize=5;endArrow=classicThin;endFill=1;endSize=5;jettySize=auto;orthogonalLoop=1;strokeWidth=1;fontFamily=Verdana;fontSize=12;exitX=0.5;exitY=1;exitDx=0;exitDy=0;entryX=0.5;entryY=0;entryDx=0;entryDy=0;" edge="1" parent="1c1d494c118603dd-4" source="60571a20871a0731-8" target="BFXSvuZgBgwEtLYpSsqL-2">
          <mxGeometry relative="1" as="geometry">
            <mxPoint x="130" y="170" as="sourcePoint" />
            <mxPoint x="70" y="170" as="targetPoint" />
          </mxGeometry>
        </mxCell>
        <mxCell id="BFXSvuZgBgwEtLYpSsqL-12" style="edgeStyle=none;rounded=0;html=1;labelBackgroundColor=none;startArrow=none;startFill=0;startSize=5;endArrow=classicThin;endFill=1;endSize=5;jettySize=auto;orthogonalLoop=1;strokeWidth=1;fontFamily=Verdana;fontSize=12;exitX=0.5;exitY=0;exitDx=0;exitDy=0;entryX=0.5;entryY=1;entryDx=0;entryDy=0;" edge="1" parent="1c1d494c118603dd-4" source="BFXSvuZgBgwEtLYpSsqL-8" target="1c1d494c118603dd-5">
          <mxGeometry relative="1" as="geometry">
            <mxPoint x="120" y="310" as="sourcePoint" />
            <mxPoint x="120" y="330" as="targetPoint" />
          </mxGeometry>
        </mxCell>
        <mxCell id="BFXSvuZgBgwEtLYpSsqL-15" value="chưa" style="text;align=center;fontStyle=1;verticalAlign=middle;spacingLeft=3;spacingRight=3;strokeColor=none;rotatable=0;points=[[0,0.5],[1,0.5]];portConstraint=eastwest;" vertex="1" parent="1c1d494c118603dd-4">
          <mxGeometry x="10" y="180" width="80" height="26" as="geometry" />
        </mxCell>
        <mxCell id="BFXSvuZgBgwEtLYpSsqL-16" value="rồi" style="text;align=center;fontStyle=1;verticalAlign=middle;spacingLeft=3;spacingRight=3;strokeColor=none;rotatable=0;points=[[0,0.5],[1,0.5]];portConstraint=eastwest;" vertex="1" parent="1c1d494c118603dd-4">
          <mxGeometry x="160" y="180" width="80" height="26" as="geometry" />
        </mxCell>
        <mxCell id="BFXSvuZgBgwEtLYpSsqL-18" value="Sai" style="text;align=center;fontStyle=1;verticalAlign=middle;spacingLeft=3;spacingRight=3;strokeColor=none;rotatable=0;points=[[0,0.5],[1,0.5]];portConstraint=eastwest;" vertex="1" parent="1c1d494c118603dd-4">
          <mxGeometry x="10" y="330" width="80" height="26" as="geometry" />
        </mxCell>
        <mxCell id="BFXSvuZgBgwEtLYpSsqL-17" value="Đúng" style="text;align=center;fontStyle=1;verticalAlign=middle;spacingLeft=3;spacingRight=3;strokeColor=none;rotatable=0;points=[[0,0.5],[1,0.5]];portConstraint=eastwest;" vertex="1" parent="1c1d494c118603dd-4">
          <mxGeometry x="10" y="400" width="80" height="26" as="geometry" />
        </mxCell>
        <mxCell id="BFXSvuZgBgwEtLYpSsqL-6" value="" style="edgeStyle=orthogonalEdgeStyle;rounded=0;orthogonalLoop=1;jettySize=auto;html=1;" edge="1" parent="1c1d494c118603dd-1" source="BFXSvuZgBgwEtLYpSsqL-2">
          <mxGeometry relative="1" as="geometry">
            <mxPoint x="414" y="115" as="targetPoint" />
            <Array as="points">
              <mxPoint x="490" y="220" />
              <mxPoint x="490" y="115" />
              <mxPoint x="414" y="115" />
            </Array>
          </mxGeometry>
        </mxCell>
        <mxCell id="BFXSvuZgBgwEtLYpSsqL-9" style="edgeStyle=none;rounded=0;html=1;labelBackgroundColor=none;startArrow=none;startFill=0;startSize=5;endArrow=classicThin;endFill=1;endSize=5;jettySize=auto;orthogonalLoop=1;strokeWidth=1;fontFamily=Verdana;fontSize=12;exitX=0.5;exitY=1;exitDx=0;exitDy=0;entryX=1;entryY=0.5;entryDx=0;entryDy=0;" edge="1" parent="1c1d494c118603dd-1" source="BFXSvuZgBgwEtLYpSsqL-8" target="1c1d494c118603dd-11">
          <mxGeometry relative="1" as="geometry">
            <mxPoint x="600" y="440" as="sourcePoint" />
            <mxPoint x="430.8571428571429" y="280" as="targetPoint" />
            <Array as="points">
              <mxPoint x="625" y="445" />
            </Array>
          </mxGeometry>
        </mxCell>
        <mxCell id="BFXSvuZgBgwEtLYpSsqL-10" style="edgeStyle=none;rounded=0;html=1;labelBackgroundColor=none;startArrow=none;startFill=0;startSize=5;endArrow=classicThin;endFill=1;endSize=5;jettySize=auto;orthogonalLoop=1;strokeWidth=1;fontFamily=Verdana;fontSize=12;exitX=1;exitY=0.5;exitDx=0;exitDy=0;entryX=1;entryY=0.75;entryDx=0;entryDy=0;" edge="1" parent="1c1d494c118603dd-1" source="BFXSvuZgBgwEtLYpSsqL-2" target="1c1d494c118603dd-11">
          <mxGeometry relative="1" as="geometry">
            <mxPoint x="670" y="220" as="sourcePoint" />
            <mxPoint x="669.5" y="250" as="targetPoint" />
            <Array as="points">
              <mxPoint x="730" y="220" />
              <mxPoint x="730" y="458" />
            </Array>
          </mxGeometry>
        </mxCell>
        <mxCell id="BFXSvuZgBgwEtLYpSsqL-13" style="edgeStyle=none;rounded=0;html=1;labelBackgroundColor=none;startArrow=none;startFill=0;startSize=5;endArrow=classicThin;endFill=1;endSize=5;jettySize=auto;orthogonalLoop=1;strokeWidth=1;fontFamily=Verdana;fontSize=12;entryX=1;entryY=0.5;entryDx=0;entryDy=0;exitX=0;exitY=0.5;exitDx=0;exitDy=0;" edge="1" parent="1c1d494c118603dd-1" source="BFXSvuZgBgwEtLYpSsqL-8" target="1c1d494c118603dd-7">
          <mxGeometry relative="1" as="geometry">
            <mxPoint x="580" y="370" as="sourcePoint" />
            <mxPoint x="510" y="390" as="targetPoint" />
          </mxGeometry>
        </mxCell>
        <mxCell id="BFXSvuZgBgwEtLYpSsqL-7" style="edgeStyle=none;rounded=0;html=1;labelBackgroundColor=none;startArrow=none;startFill=0;startSize=5;endArrow=classicThin;endFill=1;endSize=5;jettySize=auto;orthogonalLoop=1;strokeWidth=1;fontFamily=Verdana;fontSize=12" edge="1" parent="1">
          <mxGeometry relative="1" as="geometry">
            <mxPoint x="350" y="130" as="sourcePoint" />
            <mxPoint x="220" y="130" as="targetPoint" />
          </mxGeometry>
        </mxCell>
        <mxCell id="BFXSvuZgBgwEtLYpSsqL-14" style="edgeStyle=none;rounded=0;html=1;labelBackgroundColor=none;startArrow=none;startFill=0;startSize=5;endArrow=classicThin;endFill=1;endSize=5;jettySize=auto;orthogonalLoop=1;strokeWidth=1;fontFamily=Verdana;fontSize=12;entryX=0;entryY=0.5;entryDx=0;entryDy=0;" edge="1" parent="1" target="1c1d494c118603dd-5">
          <mxGeometry relative="1" as="geometry">
            <mxPoint x="160" y="160" as="sourcePoint" />
            <mxPoint x="40" y="260" as="targetPoint" />
            <Array as="points">
              <mxPoint x="160" y="315" />
            </Array>
          </mxGeometry>
        </mxCell>
      </root>
    </mxGraphModel>
  </diagram>
  <diagram id="TQMtkj2zfXz3Jwd5eBWm" name="Register">
    <mxGraphModel dx="1038" dy="580" grid="1" gridSize="10" guides="1" tooltips="1" connect="1" arrows="1" fold="1" page="1" pageScale="1" pageWidth="827" pageHeight="1169" math="0" shadow="0">
      <root>
        <mxCell id="hM2CB2c4TxM1XvbKNolr-0" />
        <mxCell id="hM2CB2c4TxM1XvbKNolr-1" parent="hM2CB2c4TxM1XvbKNolr-0" />
        <mxCell id="TIsdsutR8cZ0nS87ViM9-0" value="Pool" style="swimlane;html=1;childLayout=stackLayout;startSize=20;rounded=0;shadow=0;comic=0;labelBackgroundColor=none;strokeWidth=1;fontFamily=Verdana;fontSize=12;align=center;" vertex="1" parent="hM2CB2c4TxM1XvbKNolr-1">
          <mxGeometry x="90" y="30" width="750" height="540" as="geometry" />
        </mxCell>
        <mxCell id="TIsdsutR8cZ0nS87ViM9-1" value="Người dùng" style="swimlane;html=1;startSize=20;" vertex="1" parent="TIsdsutR8cZ0nS87ViM9-0">
          <mxGeometry y="20" width="250" height="520" as="geometry" />
        </mxCell>
        <mxCell id="TIsdsutR8cZ0nS87ViM9-2" value="Điền các thông tin người&lt;br&gt;dùng để đăng ký" style="rounded=1;whiteSpace=wrap;html=1;shadow=0;comic=0;labelBackgroundColor=none;strokeWidth=1;fontFamily=Verdana;fontSize=12;align=center;arcSize=50;" vertex="1" parent="TIsdsutR8cZ0nS87ViM9-1">
          <mxGeometry x="40" y="237.5" width="155" height="42.5" as="geometry" />
        </mxCell>
        <mxCell id="TIsdsutR8cZ0nS87ViM9-11" value="" style="ellipse;whiteSpace=wrap;html=1;rounded=0;shadow=0;comic=0;labelBackgroundColor=none;strokeWidth=1;fillColor=#000000;fontFamily=Verdana;fontSize=12;align=center;" vertex="1" parent="TIsdsutR8cZ0nS87ViM9-1">
          <mxGeometry x="115" y="30" width="30" height="30" as="geometry" />
        </mxCell>
        <mxCell id="TIsdsutR8cZ0nS87ViM9-12" value="Người dùng chọn vào chức năng đăng ký tài khoản" style="rounded=1;whiteSpace=wrap;html=1;shadow=0;comic=0;labelBackgroundColor=none;strokeWidth=1;fontFamily=Verdana;fontSize=12;align=center;arcSize=50;" vertex="1" parent="TIsdsutR8cZ0nS87ViM9-1">
          <mxGeometry x="70" y="80" width="120" height="70" as="geometry" />
        </mxCell>
        <mxCell id="5Id-BtadjInD2Qxec925-1" style="edgeStyle=none;rounded=0;html=1;labelBackgroundColor=none;startArrow=none;startFill=0;startSize=5;endArrow=classicThin;endFill=1;endSize=5;jettySize=auto;orthogonalLoop=1;strokeWidth=1;fontFamily=Verdana;fontSize=12;exitX=0.5;exitY=1;exitDx=0;exitDy=0;entryX=0.5;entryY=0;entryDx=0;entryDy=0;" edge="1" parent="TIsdsutR8cZ0nS87ViM9-1" source="TIsdsutR8cZ0nS87ViM9-11" target="TIsdsutR8cZ0nS87ViM9-12">
          <mxGeometry relative="1" as="geometry">
            <mxPoint x="130" y="80" as="sourcePoint" />
            <mxPoint x="125" y="25" as="targetPoint" />
          </mxGeometry>
        </mxCell>
        <mxCell id="TIsdsutR8cZ0nS87ViM9-3" value="Giao diện" style="swimlane;html=1;startSize=20;" vertex="1" parent="TIsdsutR8cZ0nS87ViM9-0">
          <mxGeometry x="250" y="20" width="250" height="520" as="geometry" />
        </mxCell>
        <mxCell id="TIsdsutR8cZ0nS87ViM9-5" value="Đi đến trang đăng ký tài khoản người dùng" style="rounded=1;whiteSpace=wrap;html=1;shadow=0;comic=0;labelBackgroundColor=none;strokeWidth=1;fontFamily=Verdana;fontSize=12;align=center;arcSize=50;" vertex="1" parent="TIsdsutR8cZ0nS87ViM9-3">
          <mxGeometry x="69" y="140" width="141" height="60" as="geometry" />
        </mxCell>
        <mxCell id="TIsdsutR8cZ0nS87ViM9-6" value="Đến trang home&lt;br&gt;của ứng dụng" style="rounded=1;whiteSpace=wrap;html=1;shadow=0;comic=0;labelBackgroundColor=none;strokeWidth=1;fontFamily=Verdana;fontSize=12;align=center;arcSize=50;" vertex="1" parent="TIsdsutR8cZ0nS87ViM9-3">
          <mxGeometry x="60" y="370" width="115" height="50" as="geometry" />
        </mxCell>
        <mxCell id="TIsdsutR8cZ0nS87ViM9-7" value="" style="shape=mxgraph.bpmn.shape;html=1;verticalLabelPosition=bottom;labelBackgroundColor=#ffffff;verticalAlign=top;perimeter=ellipsePerimeter;outline=end;symbol=terminate;rounded=0;shadow=0;comic=0;strokeWidth=1;fontFamily=Verdana;fontSize=12;align=center;" vertex="1" parent="TIsdsutR8cZ0nS87ViM9-3">
          <mxGeometry x="102" y="470" width="40" height="40" as="geometry" />
        </mxCell>
        <mxCell id="TIsdsutR8cZ0nS87ViM9-8" style="edgeStyle=none;rounded=0;html=1;labelBackgroundColor=none;startArrow=none;startFill=0;startSize=5;endArrow=classicThin;endFill=1;endSize=5;jettySize=auto;orthogonalLoop=1;strokeWidth=1;fontFamily=Verdana;fontSize=12;" edge="1" parent="TIsdsutR8cZ0nS87ViM9-3" target="TIsdsutR8cZ0nS87ViM9-7">
          <mxGeometry relative="1" as="geometry">
            <mxPoint x="121" y="420" as="sourcePoint" />
          </mxGeometry>
        </mxCell>
        <mxCell id="TIsdsutR8cZ0nS87ViM9-9" value="Server" style="swimlane;html=1;startSize=20;" vertex="1" parent="TIsdsutR8cZ0nS87ViM9-0">
          <mxGeometry x="500" y="20" width="250" height="520" as="geometry" />
        </mxCell>
        <mxCell id="TIsdsutR8cZ0nS87ViM9-13" value="Lưu thông tin người&amp;nbsp;&lt;br&gt;dùng vào hệ thống" style="rounded=1;whiteSpace=wrap;html=1;shadow=0;comic=0;labelBackgroundColor=none;strokeWidth=1;fontFamily=Verdana;fontSize=12;align=center;arcSize=50;" vertex="1" parent="TIsdsutR8cZ0nS87ViM9-9">
          <mxGeometry x="60" y="290" width="155" height="60" as="geometry" />
        </mxCell>
        <mxCell id="5Id-BtadjInD2Qxec925-2" style="edgeStyle=none;rounded=0;html=1;labelBackgroundColor=none;startArrow=none;startFill=0;startSize=5;endArrow=classicThin;endFill=1;endSize=5;jettySize=auto;orthogonalLoop=1;strokeWidth=1;fontFamily=Verdana;fontSize=12;entryX=0;entryY=0.5;entryDx=0;entryDy=0;exitX=0.5;exitY=1;exitDx=0;exitDy=0;" edge="1" parent="TIsdsutR8cZ0nS87ViM9-0" source="TIsdsutR8cZ0nS87ViM9-12" target="TIsdsutR8cZ0nS87ViM9-5">
          <mxGeometry relative="1" as="geometry">
            <mxPoint x="140" y="185" as="sourcePoint" />
            <mxPoint x="175" y="135" as="targetPoint" />
            <Array as="points">
              <mxPoint x="130" y="190" />
            </Array>
          </mxGeometry>
        </mxCell>
        <mxCell id="5Id-BtadjInD2Qxec925-3" style="edgeStyle=none;rounded=0;html=1;labelBackgroundColor=none;startArrow=none;startFill=0;startSize=5;endArrow=classicThin;endFill=1;endSize=5;jettySize=auto;orthogonalLoop=1;strokeWidth=1;fontFamily=Verdana;fontSize=12;exitX=0.5;exitY=1;exitDx=0;exitDy=0;entryX=1;entryY=0.5;entryDx=0;entryDy=0;" edge="1" parent="TIsdsutR8cZ0nS87ViM9-0" source="TIsdsutR8cZ0nS87ViM9-5" target="TIsdsutR8cZ0nS87ViM9-2">
          <mxGeometry relative="1" as="geometry">
            <mxPoint x="350" y="250" as="sourcePoint" />
            <mxPoint x="345" y="195" as="targetPoint" />
            <Array as="points">
              <mxPoint x="390" y="279" />
            </Array>
          </mxGeometry>
        </mxCell>
        <mxCell id="5Id-BtadjInD2Qxec925-4" style="edgeStyle=none;rounded=0;html=1;labelBackgroundColor=none;startArrow=none;startFill=0;startSize=5;endArrow=classicThin;endFill=1;endSize=5;jettySize=auto;orthogonalLoop=1;strokeWidth=1;fontFamily=Verdana;fontSize=12;exitX=0.5;exitY=1;exitDx=0;exitDy=0;" edge="1" parent="TIsdsutR8cZ0nS87ViM9-0" source="TIsdsutR8cZ0nS87ViM9-2" target="TIsdsutR8cZ0nS87ViM9-13">
          <mxGeometry relative="1" as="geometry">
            <mxPoint x="140" y="310" as="sourcePoint" />
            <mxPoint x="170" y="390" as="targetPoint" />
            <Array as="points">
              <mxPoint x="118" y="339" />
            </Array>
          </mxGeometry>
        </mxCell>
        <mxCell id="5Id-BtadjInD2Qxec925-5" style="edgeStyle=none;rounded=0;html=1;labelBackgroundColor=none;startArrow=none;startFill=0;startSize=5;endArrow=classicThin;endFill=1;endSize=5;jettySize=auto;orthogonalLoop=1;strokeWidth=1;fontFamily=Verdana;fontSize=12;exitX=0.5;exitY=1;exitDx=0;exitDy=0;entryX=1;entryY=0.5;entryDx=0;entryDy=0;" edge="1" parent="TIsdsutR8cZ0nS87ViM9-0" source="TIsdsutR8cZ0nS87ViM9-13" target="TIsdsutR8cZ0nS87ViM9-6">
          <mxGeometry relative="1" as="geometry">
            <mxPoint x="590" y="380" as="sourcePoint" />
            <mxPoint x="585" y="325" as="targetPoint" />
            <Array as="points">
              <mxPoint x="638" y="415" />
              <mxPoint x="625" y="415" />
            </Array>
          </mxGeometry>
        </mxCell>
      </root>
    </mxGraphModel>
  </diagram>
  <diagram id="GSDy-RHsGT11e4O5Hv-x" name="EditProfile">
    <mxGraphModel dx="1038" dy="580" grid="1" gridSize="10" guides="1" tooltips="1" connect="1" arrows="1" fold="1" page="1" pageScale="1" pageWidth="827" pageHeight="1169" math="0" shadow="0">
      <root>
        <mxCell id="NxwFyVqD2iB9YDStUb8P-0" />
        <mxCell id="NxwFyVqD2iB9YDStUb8P-1" parent="NxwFyVqD2iB9YDStUb8P-0" />
        <mxCell id="s7abr0trFuKG4dJ2yKVV-0" value="Pool" style="swimlane;html=1;childLayout=stackLayout;startSize=20;rounded=0;shadow=0;comic=0;labelBackgroundColor=none;strokeWidth=1;fontFamily=Verdana;fontSize=12;align=center;" vertex="1" parent="NxwFyVqD2iB9YDStUb8P-1">
          <mxGeometry x="110" y="40" width="750" height="520" as="geometry" />
        </mxCell>
        <mxCell id="s7abr0trFuKG4dJ2yKVV-1" value="Người dùng" style="swimlane;html=1;startSize=20;" vertex="1" parent="s7abr0trFuKG4dJ2yKVV-0">
          <mxGeometry y="20" width="250" height="500" as="geometry" />
        </mxCell>
        <mxCell id="s7abr0trFuKG4dJ2yKVV-2" value="Người dùng chỉnh sửa&lt;br&gt;thông tin cần chỉnh sửa" style="rounded=1;whiteSpace=wrap;html=1;shadow=0;comic=0;labelBackgroundColor=none;strokeWidth=1;fontFamily=Verdana;fontSize=12;align=center;arcSize=50;" vertex="1" parent="s7abr0trFuKG4dJ2yKVV-1">
          <mxGeometry x="47.5" y="200" width="155" height="42.5" as="geometry" />
        </mxCell>
        <mxCell id="s7abr0trFuKG4dJ2yKVV-3" value="" style="ellipse;whiteSpace=wrap;html=1;rounded=0;shadow=0;comic=0;labelBackgroundColor=none;strokeWidth=1;fillColor=#000000;fontFamily=Verdana;fontSize=12;align=center;" vertex="1" parent="s7abr0trFuKG4dJ2yKVV-1">
          <mxGeometry x="115" y="30" width="30" height="30" as="geometry" />
        </mxCell>
        <mxCell id="s7abr0trFuKG4dJ2yKVV-4" value="Chọn nút sửa thông tin người dùng" style="rounded=1;whiteSpace=wrap;html=1;shadow=0;comic=0;labelBackgroundColor=none;strokeWidth=1;fontFamily=Verdana;fontSize=12;align=center;arcSize=50;" vertex="1" parent="s7abr0trFuKG4dJ2yKVV-1">
          <mxGeometry x="70" y="80" width="120" height="60" as="geometry" />
        </mxCell>
        <mxCell id="s7abr0trFuKG4dJ2yKVV-5" style="edgeStyle=none;rounded=0;html=1;labelBackgroundColor=none;startArrow=none;startFill=0;startSize=5;endArrow=classicThin;endFill=1;endSize=5;jettySize=auto;orthogonalLoop=1;strokeWidth=1;fontFamily=Verdana;fontSize=12;exitX=0.5;exitY=1;exitDx=0;exitDy=0;entryX=0.5;entryY=0;entryDx=0;entryDy=0;" edge="1" parent="s7abr0trFuKG4dJ2yKVV-1" source="s7abr0trFuKG4dJ2yKVV-3" target="s7abr0trFuKG4dJ2yKVV-4">
          <mxGeometry relative="1" as="geometry">
            <mxPoint x="130" y="80" as="sourcePoint" />
            <mxPoint x="125" y="25" as="targetPoint" />
          </mxGeometry>
        </mxCell>
        <mxCell id="s7abr0trFuKG4dJ2yKVV-8" value="Nhấn nút xác nhận sửa" style="rounded=1;whiteSpace=wrap;html=1;shadow=0;comic=0;labelBackgroundColor=none;strokeWidth=1;fontFamily=Verdana;fontSize=12;align=center;arcSize=50;" vertex="1" parent="s7abr0trFuKG4dJ2yKVV-1">
          <mxGeometry x="70" y="330" width="120" height="60" as="geometry" />
        </mxCell>
        <mxCell id="s7abr0trFuKG4dJ2yKVV-19" style="edgeStyle=none;rounded=0;html=1;labelBackgroundColor=none;startArrow=none;startFill=0;startSize=5;endArrow=classicThin;endFill=1;endSize=5;jettySize=auto;orthogonalLoop=1;strokeWidth=1;fontFamily=Verdana;fontSize=12;" edge="1" parent="s7abr0trFuKG4dJ2yKVV-1">
          <mxGeometry relative="1" as="geometry">
            <mxPoint x="121" y="243" as="sourcePoint" />
            <mxPoint x="121" y="330" as="targetPoint" />
          </mxGeometry>
        </mxCell>
        <mxCell id="s7abr0trFuKG4dJ2yKVV-6" value="Giao diện" style="swimlane;html=1;startSize=20;" vertex="1" parent="s7abr0trFuKG4dJ2yKVV-0">
          <mxGeometry x="250" y="20" width="250" height="500" as="geometry" />
        </mxCell>
        <mxCell id="s7abr0trFuKG4dJ2yKVV-7" value="Đi đến giao diện chỉnh sửa thông tin người dùng" style="rounded=1;whiteSpace=wrap;html=1;shadow=0;comic=0;labelBackgroundColor=none;strokeWidth=1;fontFamily=Verdana;fontSize=12;align=center;arcSize=50;" vertex="1" parent="s7abr0trFuKG4dJ2yKVV-6">
          <mxGeometry x="40" y="80" width="152.5" height="60" as="geometry" />
        </mxCell>
        <mxCell id="s7abr0trFuKG4dJ2yKVV-11" value="Server" style="swimlane;html=1;startSize=20;" vertex="1" parent="s7abr0trFuKG4dJ2yKVV-0">
          <mxGeometry x="500" y="20" width="250" height="500" as="geometry" />
        </mxCell>
        <mxCell id="s7abr0trFuKG4dJ2yKVV-12" value="Lưu thông tin người&amp;nbsp;&lt;br&gt;dùng vào hệ thống" style="rounded=1;whiteSpace=wrap;html=1;shadow=0;comic=0;labelBackgroundColor=none;strokeWidth=1;fontFamily=Verdana;fontSize=12;align=center;arcSize=50;" vertex="1" parent="s7abr0trFuKG4dJ2yKVV-11">
          <mxGeometry x="70" y="380" width="155" height="60" as="geometry" />
        </mxCell>
        <mxCell id="s7abr0trFuKG4dJ2yKVV-9" value="" style="shape=mxgraph.bpmn.shape;html=1;verticalLabelPosition=bottom;labelBackgroundColor=#ffffff;verticalAlign=top;perimeter=ellipsePerimeter;outline=end;symbol=terminate;rounded=0;shadow=0;comic=0;strokeWidth=1;fontFamily=Verdana;fontSize=12;align=center;" vertex="1" parent="s7abr0trFuKG4dJ2yKVV-11">
          <mxGeometry x="131.25" y="460" width="32.5" height="30" as="geometry" />
        </mxCell>
        <mxCell id="s7abr0trFuKG4dJ2yKVV-10" style="edgeStyle=none;rounded=0;html=1;labelBackgroundColor=none;startArrow=none;startFill=0;startSize=5;endArrow=classicThin;endFill=1;endSize=5;jettySize=auto;orthogonalLoop=1;strokeWidth=1;fontFamily=Verdana;fontSize=12;exitX=0.5;exitY=1;exitDx=0;exitDy=0;" edge="1" parent="s7abr0trFuKG4dJ2yKVV-11" target="s7abr0trFuKG4dJ2yKVV-9" source="s7abr0trFuKG4dJ2yKVV-12">
          <mxGeometry relative="1" as="geometry">
            <mxPoint x="-129" y="420" as="sourcePoint" />
          </mxGeometry>
        </mxCell>
        <mxCell id="s7abr0trFuKG4dJ2yKVV-17" style="edgeStyle=none;rounded=0;html=1;labelBackgroundColor=none;startArrow=none;startFill=0;startSize=5;endArrow=classicThin;endFill=1;endSize=5;jettySize=auto;orthogonalLoop=1;strokeWidth=1;fontFamily=Verdana;fontSize=12;exitX=1;exitY=0.5;exitDx=0;exitDy=0;entryX=0;entryY=0.5;entryDx=0;entryDy=0;" edge="1" parent="s7abr0trFuKG4dJ2yKVV-0" source="s7abr0trFuKG4dJ2yKVV-4" target="s7abr0trFuKG4dJ2yKVV-7">
          <mxGeometry relative="1" as="geometry">
            <mxPoint x="230" y="130" as="sourcePoint" />
            <mxPoint x="230" y="170" as="targetPoint" />
          </mxGeometry>
        </mxCell>
        <mxCell id="s7abr0trFuKG4dJ2yKVV-18" style="edgeStyle=none;rounded=0;html=1;labelBackgroundColor=none;startArrow=none;startFill=0;startSize=5;endArrow=classicThin;endFill=1;endSize=5;jettySize=auto;orthogonalLoop=1;strokeWidth=1;fontFamily=Verdana;fontSize=12;exitX=0.5;exitY=1;exitDx=0;exitDy=0;entryX=0.5;entryY=0;entryDx=0;entryDy=0;" edge="1" parent="s7abr0trFuKG4dJ2yKVV-0" source="s7abr0trFuKG4dJ2yKVV-7" target="s7abr0trFuKG4dJ2yKVV-2">
          <mxGeometry relative="1" as="geometry">
            <mxPoint x="340" y="180" as="sourcePoint" />
            <mxPoint x="340" y="220" as="targetPoint" />
            <Array as="points">
              <mxPoint x="366" y="200" />
              <mxPoint x="125" y="200" />
            </Array>
          </mxGeometry>
        </mxCell>
        <mxCell id="s7abr0trFuKG4dJ2yKVV-20" style="edgeStyle=none;rounded=0;html=1;labelBackgroundColor=none;startArrow=none;startFill=0;startSize=5;endArrow=classicThin;endFill=1;endSize=5;jettySize=auto;orthogonalLoop=1;strokeWidth=1;fontFamily=Verdana;fontSize=12;exitX=0.44;exitY=1.017;exitDx=0;exitDy=0;exitPerimeter=0;entryX=0;entryY=0.5;entryDx=0;entryDy=0;" edge="1" parent="s7abr0trFuKG4dJ2yKVV-0" source="s7abr0trFuKG4dJ2yKVV-8" target="s7abr0trFuKG4dJ2yKVV-12">
          <mxGeometry relative="1" as="geometry">
            <mxPoint x="150" y="440" as="sourcePoint" />
            <mxPoint x="150" y="480" as="targetPoint" />
            <Array as="points">
              <mxPoint x="123" y="430" />
              <mxPoint x="548" y="430" />
            </Array>
          </mxGeometry>
        </mxCell>
      </root>
    </mxGraphModel>
  </diagram>
</mxfile>
